<svg width="64" height="64" viewBox="0 0 64 64" fill="none" xmlns="http://www.w3.org/2000/svg">
  <rect width="64" height="64" rx="14" fill="#173F32"/>
  <circle cx="32" cy="32" r="19" fill="#D9FF57" stroke="#FAF9F2" stroke-width="3"/>
  <path d="M13 32H51M32 13C26.5 18 24 24.5 24 32C24 39.5 26.5 46 32 51M32 13C37.5 18 40 24.5 40 32C40 39.5 37.5 46 32 51" stroke="#173F32" stroke-width="3" stroke-linecap="round"/>
  <path d="M17.5 21.5C22 24 27 25.5 32 25.5C37 25.5 42 24 46.5 21.5M17.5 42.5C22 40 27 38.5 32 38.5C37 38.5 42 40 46.5 42.5" stroke="#173F32" stroke-width="2.5" stroke-linecap="round"/>
  <path d="M8 49C19 43 41 28 55 14" stroke="#FAF9F2" stroke-width="3" stroke-linecap="round"/>
  <circle cx="52" cy="17" r="5" fill="#D9FF57" stroke="#173F32" stroke-width="3"/>
</svg>
